<svg xmlns="http://www.w3.org/2000/svg" viewBox="0 0 58 58"><defs><style>.cls-1{fill:#d0e6ef;}.cls-2{fill:#1b0238;}.cls-3{fill:#2b4abc;}.cls-4{fill:#3391dd;}.cls-5{fill:#7dc4f4;}.cls-6{fill:#e22d77;}.cls-7{fill:#592d3f;}.cls-8{fill:#ce054e;}.cls-9{fill:#ef89b2;}.cls-10{fill:#2b097f;}.cls-11{fill:#380fb7;}.cls-12{fill:#2f0b9e;}.cls-13{fill:#4419f9;}</style></defs><title>Logo2D</title><g id="fundo"><circle class="cls-1" cx="29" cy="29" r="29"/></g><g id="_2D" data-name="2D"><rect class="cls-2" x="9.28" y="19.26" width="13.5" height="2.59"/><rect class="cls-2" x="22.78" y="21.85" width="2.59" height="6.13"/><rect class="cls-2" x="13.64" y="27.98" width="9.13" height="2.73"/><rect class="cls-2" x="9.28" y="30.71" width="4.36" height="2.59"/><rect class="cls-2" x="6.42" y="33.3" width="2.86" height="5.45"/><rect class="cls-2" x="9.28" y="36.19" width="16.04" height="2.56"/><rect class="cls-2" x="22.78" y="33.3" width="2.59" height="3.54"/><rect class="cls-3" x="8.33" y="19.26" width="0.95" height="2.59"/><rect class="cls-4" x="7.78" y="19.26" width="0.55" height="2.59"/><rect class="cls-2" x="33" y="19.26" width="2.86" height="19.49"/><rect class="cls-5" x="6.42" y="19.26" width="1.36" height="2.59"/><rect class="cls-2" x="35.86" y="19.26" width="10.77" height="2.59"/><rect class="cls-2" x="46.63" y="21.85" width="3.95" height="14.31"/><rect class="cls-2" x="35.86" y="36.12" width="10.77" height="2.63"/><rect class="cls-6" x="35.86" y="21.85" width="2.63" height="14.27"/><rect class="cls-2" x="44.04" y="33.98" width="2.59" height="2.18"/><rect class="cls-2" x="44.04" y="21.85" width="2.59" height="2.18"/><rect class="cls-7" x="35.86" y="21.85" width="0.69" height="14.27"/><rect class="cls-8" x="36.55" y="21.85" width="0.69" height="14.27"/><rect class="cls-9" x="38.21" y="21.85" width="0.69" height="14.27"/><rect class="cls-6" x="50.59" y="21.85" width="2.59" height="14.31"/><rect class="cls-7" x="50.59" y="21.85" width="0.68" height="14.31"/><rect class="cls-8" x="51.27" y="21.85" width="0.68" height="14.31"/><rect class="cls-9" x="52.9" y="21.85" width="0.68" height="14.31"/><rect class="cls-6" x="46.63" y="36.16" width="3.41" height="2.59"/><rect class="cls-7" x="46.63" y="36.16" width="0.9" height="2.59"/><rect class="cls-8" x="47.53" y="36.16" width="0.9" height="2.59"/><rect class="cls-9" x="49.69" y="36.16" width="0.9" height="2.59"/><rect class="cls-6" x="46.62" y="19.28" width="3.41" height="2.59"/><rect class="cls-7" x="46.62" y="19.28" width="0.9" height="2.59"/><rect class="cls-8" x="47.52" y="19.28" width="0.9" height="2.59"/><rect class="cls-9" x="49.67" y="19.28" width="0.9" height="2.59"/><rect class="cls-6" x="25.32" y="33.3" width="2.51" height="5.45"/><rect class="cls-7" x="25.32" y="33.3" width="0.66" height="5.45"/><rect class="cls-8" x="25.98" y="33.3" width="0.66" height="5.45"/><rect class="cls-9" x="27.57" y="33.3" width="0.66" height="5.45"/><rect class="cls-6" x="25.37" y="21.85" width="2.59" height="6.12"/><rect class="cls-7" x="25.37" y="21.85" width="0.68" height="6.12"/><rect class="cls-8" x="26.05" y="21.85" width="0.68" height="6.12"/><rect class="cls-9" x="27.68" y="21.85" width="0.68" height="6.12"/><rect class="cls-6" x="22.78" y="27.98" width="2.24" height="2.73"/><rect class="cls-7" x="22.78" y="27.98" width="0.59" height="2.73"/><rect class="cls-8" x="23.36" y="27.98" width="0.59" height="2.73"/><rect class="cls-9" x="24.55" y="27.98" width="0.82" height="2.73"/><rect class="cls-6" x="22.78" y="19.26" width="2.24" height="2.59"/><rect class="cls-7" x="22.78" y="19.26" width="0.59" height="2.59"/><rect class="cls-8" x="23.36" y="19.26" width="0.59" height="2.59"/><rect class="cls-9" x="24.55" y="19.26" width="0.82" height="2.59"/><rect class="cls-6" x="13.64" y="30.71" width="1.65" height="2.59"/><rect class="cls-7" x="13.64" y="30.71" width="0.43" height="2.59"/><rect class="cls-8" x="14.08" y="30.71" width="0.43" height="2.59"/><rect class="cls-9" x="15.12" y="30.71" width="0.43" height="2.59"/><rect class="cls-6" x="9.14" y="21.85" width="2.21" height="2.59"/><rect class="cls-7" x="9.14" y="21.85" width="0.58" height="2.59"/><rect class="cls-8" x="9.73" y="21.85" width="0.58" height="2.59"/><rect class="cls-9" x="11.12" y="21.85" width="0.58" height="2.59"/><rect class="cls-6" x="9.28" y="33.3" width="1.99" height="2.89"/><rect class="cls-7" x="9.28" y="33.3" width="0.52" height="2.89"/><rect class="cls-8" x="9.8" y="33.3" width="0.52" height="2.89"/><rect class="cls-9" x="11.06" y="33.3" width="0.52" height="2.89"/><rect class="cls-4" x="66.06" y="57.26" width="2.94" height="19.49" transform="translate(99.06 96.01) rotate(-180)"/><rect class="cls-10" x="68.23" y="57.26" width="0.77" height="19.49" transform="translate(101.23 96.01) rotate(-180)"/><rect class="cls-11" x="67.45" y="57.26" width="0.77" height="19.49" transform="translate(99.68 96.01) rotate(-180)"/><rect class="cls-5" x="65.59" y="57.26" width="0.77" height="19.49" transform="translate(95.96 96.01) rotate(-180)"/><rect class="cls-4" x="80.4" y="62.03" width="2.24" height="9.95" transform="translate(127.03 96.01) rotate(-180)"/><rect class="cls-10" x="82.04" y="62.03" width="0.59" height="9.95" transform="translate(128.68 96.01) rotate(-180)"/><rect class="cls-11" x="81.45" y="62.03" width="0.59" height="9.95" transform="translate(127.5 96.01) rotate(-180)"/><rect class="cls-5" x="80.04" y="62.03" width="0.59" height="9.95" transform="translate(124.67 96.01) rotate(-180)"/><rect class="cls-4" x="75.57" y="59.85" width="4.47" height="2.18" transform="translate(119.61 83.87) rotate(-180)"/><rect class="cls-12" x="79.22" y="59.85" width="0.82" height="2.18" transform="translate(123.27 83.87) rotate(-180)"/><rect class="cls-13" x="77.69" y="59.85" width="1.54" height="2.18" transform="translate(120.91 83.87) rotate(-180)"/><rect class="cls-5" x="74.86" y="59.85" width="1.18" height="2.18" transform="translate(114.9 83.87) rotate(-180)"/><rect class="cls-4" x="75.61" y="71.97" width="4.45" height="2.15" transform="translate(119.66 108.09) rotate(-180)"/><rect class="cls-12" x="79.24" y="71.97" width="0.81" height="2.15" transform="translate(123.3 108.09) rotate(-180)"/><rect class="cls-13" x="77.71" y="71.97" width="1.53" height="2.15" transform="translate(120.95 108.09) rotate(-180)"/><rect class="cls-5" x="74.91" y="71.97" width="1.17" height="2.15" transform="translate(114.98 108.09) rotate(-180)"/><rect class="cls-4" x="56.65" y="71.3" width="2.15" height="2.89" transform="translate(79.45 107.48) rotate(-180)"/><rect class="cls-10" x="58.23" y="71.3" width="0.57" height="2.89" transform="translate(81.04 107.48) rotate(-180)"/><rect class="cls-11" x="57.67" y="71.3" width="0.57" height="2.89" transform="translate(79.9 107.48) rotate(-180)"/><rect class="cls-5" x="56.31" y="71.3" width="0.57" height="2.89" transform="translate(77.19 107.48) rotate(-180)"/><rect class="cls-4" x="56.56" y="59.85" width="2.22" height="6.13" transform="translate(79.33 87.83) rotate(-180)"/><rect class="cls-10" x="58.19" y="59.85" width="0.58" height="6.13" transform="translate(80.97 87.83) rotate(-180)"/><rect class="cls-11" x="57.61" y="59.85" width="0.58" height="6.13" transform="translate(79.8 87.83) rotate(-180)"/><rect class="cls-5" x="56.21" y="59.85" width="0.58" height="6.13" transform="translate(77 87.83) rotate(-180)"/><rect class="cls-2" x="6.42" y="21.85" width="2.86" height="2.59"/><rect class="cls-3" x="5.69" y="21.85" width="0.73" height="2.59"/><rect class="cls-4" x="5.28" y="21.85" width="0.42" height="2.59"/><rect class="cls-5" x="4.24" y="21.85" width="1.04" height="2.59"/><rect class="cls-3" x="5.66" y="33.3" width="0.76" height="5.45"/><rect class="cls-4" x="5.23" y="33.3" width="0.43" height="5.45"/><rect class="cls-5" x="4.15" y="33.3" width="1.08" height="5.45"/><rect class="cls-3" x="8.33" y="30.71" width="0.95" height="2.59"/><rect class="cls-4" x="7.78" y="30.71" width="0.55" height="2.59"/><rect class="cls-5" x="6.42" y="30.71" width="1.36" height="2.59"/><rect class="cls-3" x="12.19" y="27.98" width="1.45" height="2.73"/><rect class="cls-4" x="11.36" y="27.98" width="0.83" height="2.73"/><rect class="cls-5" x="9.28" y="27.98" width="2.08" height="2.73"/></g></svg>